<svg width="52" height="51" viewBox="0 0 52 51" fill="none" xmlns="http://www.w3.org/2000/svg">
<g clip-path="url(#clip0_2002_833)">
<path d="M0 0V33.3335H51.4863V0H0ZM50.2085 32.0487H1.28473V1.28473H50.2085V32.0557V32.0487Z" fill="#EF6948"/>
<path d="M17.3941 17.7715H15.1094V20.0562H17.3941V17.7715Z" fill="#EF6948"/>
<path d="M17.3594 21.0762H15.1719V28.3193H17.3594V21.0762Z" fill="#EF6948"/>
<path d="M18.5148 24.5009V24.8898C18.5148 26.9939 19.6259 28.5009 22.0564 28.5009C24.1606 28.5009 25.3551 27.4384 25.3551 26.0495V25.987H23.2926C23.2926 26.4176 22.8203 26.8412 22.0564 26.8412C21.23 26.8412 20.7578 26.4731 20.6745 25.4523H25.3551V24.4939C25.3551 22.3898 24.2856 20.8828 21.9731 20.8828C19.6606 20.8828 18.5078 22.4106 18.5078 24.4939L18.5148 24.5009ZM21.9175 22.5217C22.7023 22.5217 23.0912 22.9731 23.1537 23.9106H20.7023C20.7648 22.9731 21.1537 22.5217 21.9175 22.5217Z" fill="#EF6948"/>
<path d="M29.1463 19.0352H26.9588V21.0768H25.8477V22.9518H26.9588V25.7852C26.9588 27.7852 28.0491 28.4796 29.7018 28.4796C30.3616 28.4796 30.7505 28.3546 30.8755 28.2991V26.5213C30.7921 26.563 30.4449 26.6255 30.2157 26.6255C29.556 26.6255 29.1463 26.4449 29.1463 25.563V22.9518H31.0213V21.0768H29.1463V19.0352Z" fill="#EF6948"/>
<path d="M16.3047 14.666C16.8186 14.9716 17.4158 15.1383 18.0964 15.1383C18.7769 15.1383 19.3742 14.9716 19.888 14.666C20.4228 14.3397 20.8394 13.9091 21.1242 13.3605C21.4367 12.791 21.5756 12.1799 21.5756 11.4646C21.5756 10.7494 21.4089 10.1174 21.1242 9.5688C20.8117 9.02019 20.4019 8.5688 19.888 8.26324C19.3533 7.95768 18.7561 7.79102 18.0964 7.79102C17.4366 7.79102 16.8394 7.95074 16.3047 8.26324C15.77 8.58963 15.3602 9.02019 15.0686 9.5688C14.763 10.1382 14.6172 10.7494 14.6172 11.4646C14.6172 12.1799 14.7839 12.8119 15.0686 13.3605C15.3602 13.9091 15.77 14.3605 16.3047 14.666ZM16.9436 10.0549C17.2353 9.70769 17.6241 9.52713 18.0964 9.52713C18.5686 9.52713 18.9436 9.70769 19.2492 10.0549C19.5617 10.4021 19.7005 10.8883 19.7005 11.4855C19.7005 12.0827 19.5547 12.5688 19.2492 12.916C18.9367 13.2633 18.5686 13.4438 18.0964 13.4438C17.6241 13.4438 17.2491 13.2633 16.9436 12.916C16.638 12.5688 16.4922 12.0827 16.4922 11.4855C16.4922 10.8883 16.638 10.4021 16.9436 10.0549Z" fill="#EF6948"/>
<path d="M31.326 15.1943H33.1593V9.6248H34.7218V7.97202H33.1176V7.62479C33.1176 6.90951 33.3885 6.56229 33.944 6.56229C34.2357 6.56229 34.4788 6.64562 34.6871 6.82618L35.1593 5.27756C34.9926 5.15256 34.7913 5.05534 34.5413 4.99284C34.2913 4.93034 34.0274 4.88867 33.7565 4.88867C32.9718 4.88867 32.3746 5.13173 31.944 5.62479C31.5135 6.1109 31.3051 6.78451 31.3051 7.62479V7.95118H30.3398V9.60397H31.326V15.1943Z" fill="#EF6948"/>
<path d="M36.9115 15.951C36.6823 15.951 36.3351 15.8885 36.2517 15.8468V17.5204C36.3767 17.6038 36.7448 17.7218 37.3837 17.7218C38.967 17.7218 39.6893 16.8677 40.1893 14.7635L42.7448 8.02734H40.974L39.1823 13.0274L37.4115 8.02734H35.5156L38.0087 14.7704C38.0087 15.7427 37.5504 15.944 36.9184 15.944L36.9115 15.951Z" fill="#EF6948"/>
<path d="M23.763 14.4028C24.2353 14.7084 24.77 14.8542 25.3464 14.8542C26.1589 14.8542 26.8186 14.5695 27.2839 14.007C27.4089 14.9098 27.388 16.2153 25.013 16.1181C23.8186 16.0556 23.4227 15.875 23.3255 15.8334V17.507C23.4714 17.5903 24.4991 17.7084 25.2422 17.7084C28.1172 17.7084 29.1519 16.5695 29.1797 14.2014V7.875H27.4505V8.8125C26.9575 8.09722 26.2561 7.75 25.3464 7.75C24.77 7.75 24.2353 7.89583 23.763 8.20139C23.27 8.48611 22.895 8.91667 22.6102 9.44445C22.3186 9.97223 22.1797 10.6042 22.1797 11.2986C22.1797 11.9931 22.3255 12.625 22.6102 13.1528C22.9019 13.6806 23.2908 14.0903 23.763 14.3959V14.4028ZM24.5269 9.97223C24.8394 9.62501 25.2283 9.46529 25.7214 9.46529C26.2144 9.46529 26.6103 9.64584 26.9158 9.97223C27.2283 10.2986 27.388 10.75 27.388 11.2778C27.388 11.8056 27.2214 12.257 26.9158 12.5834C26.6103 12.9306 26.1936 13.0903 25.7214 13.0903C25.2491 13.0903 24.8325 12.9097 24.5269 12.5834C24.2144 12.257 24.0547 11.8056 24.0547 11.2778C24.0547 10.75 24.2214 10.2986 24.5269 9.97223Z" fill="#EF6948"/>
<path d="M13.7513 10.2563V9.72854C13.7513 6.17991 12.4527 4.85352 9.36243 4.85352H6.16797V15.1383H9.36243C12.4527 15.1383 13.7513 13.8119 13.7513 10.2633V10.2563ZM8.33464 13.2772V6.68686H9.24437C11.036 6.68686 11.5499 7.66603 11.5499 9.72854V10.2563C11.5499 12.3188 11.036 13.298 9.24437 13.298V13.2772H8.33464Z" fill="#EF6948"/>
<path d="M13.8972 23.341V22.8132C13.8972 19.1812 12.5777 17.834 9.42493 17.834H6.16797V28.3201H9.42493C12.5777 28.3201 13.8972 26.9729 13.8972 23.341ZM8.37631 26.4451V19.709H9.30687C11.1402 19.709 11.6541 20.709 11.6541 22.8132V23.341C11.6541 25.4451 11.1402 26.4451 9.30687 26.4451H8.37631Z" fill="#EF6948"/>
</g>
<path d="M4.60719 46.484C4.08052 46.484 3.60552 46.3923 3.18219 46.209C2.76219 46.0257 2.41552 45.764 2.14219 45.424C1.87219 45.0807 1.70052 44.674 1.62719 44.204L2.87719 44.014C2.98385 44.4407 3.20219 44.7707 3.53219 45.004C3.86552 45.2373 4.24885 45.354 4.68219 45.354C4.93885 45.354 5.18052 45.314 5.40719 45.234C5.63385 45.154 5.81719 45.0373 5.95719 44.884C6.10052 44.7307 6.17219 44.5423 6.17219 44.319C6.17219 44.219 6.15552 44.1273 6.12219 44.044C6.08885 43.9573 6.03885 43.8807 5.97219 43.814C5.90885 43.7473 5.82552 43.6873 5.72219 43.634C5.62219 43.5773 5.50552 43.529 5.37219 43.489L3.51219 42.939C3.35219 42.8923 3.17885 42.8307 2.99219 42.754C2.80885 42.674 2.63385 42.5657 2.46719 42.429C2.30385 42.289 2.16885 42.1123 2.06219 41.899C1.95885 41.6823 1.90719 41.4157 1.90719 41.099C1.90719 40.6357 2.02385 40.2473 2.25719 39.934C2.49385 39.6173 2.81052 39.3807 3.20719 39.224C3.60719 39.0673 4.05052 38.9907 4.53719 38.994C5.03052 38.9973 5.47052 39.0823 5.85719 39.249C6.24385 39.4123 6.56719 39.6507 6.82719 39.964C7.08719 40.2773 7.27052 40.6557 7.37719 41.099L6.08219 41.324C6.02885 41.0707 5.92552 40.8557 5.77219 40.679C5.62219 40.499 5.43719 40.3623 5.21719 40.269C5.00052 40.1757 4.76885 40.1257 4.52219 40.119C4.28219 40.1157 4.05885 40.1523 3.85219 40.229C3.64885 40.3023 3.48385 40.409 3.35719 40.549C3.23385 40.689 3.17219 40.8523 3.17219 41.039C3.17219 41.2157 3.22552 41.3607 3.33219 41.474C3.43885 41.584 3.57052 41.6723 3.72719 41.739C3.88719 41.8023 4.04885 41.8557 4.21219 41.899L5.50219 42.259C5.67885 42.3057 5.87719 42.369 6.09719 42.449C6.31719 42.529 6.52885 42.6407 6.73219 42.784C6.93552 42.9273 7.10219 43.1157 7.23219 43.349C7.36552 43.5823 7.43219 43.879 7.43219 44.239C7.43219 44.6123 7.35385 44.9407 7.19719 45.224C7.04385 45.504 6.83552 45.7373 6.57219 45.924C6.30885 46.1107 6.00719 46.2507 5.66719 46.344C5.33052 46.4373 4.97719 46.484 4.60719 46.484ZM12.5145 46.334L14.7845 39.134H16.5495L18.8195 46.334H17.5795L15.5195 39.874H15.7895L13.7545 46.334H12.5145ZM13.7795 44.774V43.649H17.5595V44.774H13.7795ZM24.3234 46.334V39.134H25.5284V45.204H28.7084V46.334H24.3234ZM34.0555 46.334V39.134H38.7055V40.264H35.2605V42.039H38.1055V43.169H35.2605V45.204H38.7055V46.334H34.0555ZM47.0017 46.484C46.4751 46.484 46.0001 46.3923 45.5767 46.209C45.1567 46.0257 44.8101 45.764 44.5367 45.424C44.2667 45.0807 44.0951 44.674 44.0217 44.204L45.2717 44.014C45.3784 44.4407 45.5967 44.7707 45.9267 45.004C46.2601 45.2373 46.6434 45.354 47.0767 45.354C47.3334 45.354 47.5751 45.314 47.8017 45.234C48.0284 45.154 48.2117 45.0373 48.3517 44.884C48.4951 44.7307 48.5667 44.5423 48.5667 44.319C48.5667 44.219 48.5501 44.1273 48.5167 44.044C48.4834 43.9573 48.4334 43.8807 48.3667 43.814C48.3034 43.7473 48.2201 43.6873 48.1167 43.634C48.0167 43.5773 47.9001 43.529 47.7667 43.489L45.9067 42.939C45.7467 42.8923 45.5734 42.8307 45.3867 42.754C45.2034 42.674 45.0284 42.5657 44.8617 42.429C44.6984 42.289 44.5634 42.1123 44.4567 41.899C44.3534 41.6823 44.3017 41.4157 44.3017 41.099C44.3017 40.6357 44.4184 40.2473 44.6517 39.934C44.8884 39.6173 45.2051 39.3807 45.6017 39.224C46.0017 39.0673 46.4451 38.9907 46.9317 38.994C47.4251 38.9973 47.8651 39.0823 48.2517 39.249C48.6384 39.4123 48.9617 39.6507 49.2217 39.964C49.4817 40.2773 49.6651 40.6557 49.7717 41.099L48.4767 41.324C48.4234 41.0707 48.3201 40.8557 48.1667 40.679C48.0167 40.499 47.8317 40.3623 47.6117 40.269C47.3951 40.1757 47.1634 40.1257 46.9167 40.119C46.6767 40.1157 46.4534 40.1523 46.2467 40.229C46.0434 40.3023 45.8784 40.409 45.7517 40.549C45.6284 40.689 45.5667 40.8523 45.5667 41.039C45.5667 41.2157 45.6201 41.3607 45.7267 41.474C45.8334 41.584 45.9651 41.6723 46.1217 41.739C46.2817 41.8023 46.4434 41.8557 46.6067 41.899L47.8967 42.259C48.0734 42.3057 48.2717 42.369 48.4917 42.449C48.7117 42.529 48.9234 42.6407 49.1267 42.784C49.3301 42.9273 49.4967 43.1157 49.6267 43.349C49.7601 43.5823 49.8267 43.879 49.8267 44.239C49.8267 44.6123 49.7484 44.9407 49.5917 45.224C49.4384 45.504 49.2301 45.7373 48.9667 45.924C48.7034 46.1107 48.4017 46.2507 48.0617 46.344C47.7251 46.4373 47.3717 46.484 47.0017 46.484Z" fill="#767676"/>
<defs>
<clipPath id="clip0_2002_833">
<rect width="51.4863" height="33.3335" fill="white"/>
</clipPath>
</defs>
</svg>
